<svg xmlns="http://www.w3.org/2000/svg" width="64" height="64" viewBox="0 0 64 64"><path fill="currentColor" d="M25.7 31.1c.2-.3.4-.5.6-.8 1.4-2 2.1-4.6 2.1-7.4 0-5.6-3.1-11.2-9.1-11.2H2c-1.1 0-2 .9-2 2v36.6c0 1.1.9 2 2 2h19.2c3 0 5.7-1.3 7.5-3.6 1.5-2 2.4-4.7 2.4-7.5 0-4.1-1.9-8.2-5.4-10.1zM4 15.7h15.3c3.5 0 5.1 3.7 5.1 7.2 0 2-.5 3.9-1.4 5.2-.9 1.3-2.2 2-3.7 2H4V15.7zm21.5 30.6c-1.1 1.4-2.5 2.1-4.3 2.1H4V34h17.2c4.7 0 5.9 4.5 5.9 7.2 0 1.9-.6 3.8-1.6 5.1zM48.7 21.7c-8.5 0-15.3 6.9-15.3 15.3s6.9 15.3 15.3 15.3c4.8 0 9.3-2.2 12.2-6.1.7-.9.5-2.1-.4-2.8-.9-.7-2.1-.5-2.8.4-2.2 2.9-5.5 4.5-9 4.5-5.6 0-10.2-4-11.2-9.3H62c1.1 0 2-.9 2-2 0-8.4-6.9-15.3-15.3-15.3zM37.5 35c.9-5.3 5.6-9.3 11.2-9.3s10.2 4 11.2 9.3H37.5zM40.2 17h17.6c1.1 0 2-.9 2-2s-.9-2-2-2H40.2c-1.1 0-2 .9-2 2s.9 2 2 2z"/></svg>
