<svg xmlns="http://www.w3.org/2000/svg" width="50.8" height="50.4" viewBox="0 0 50.8 50.4"><path fill="currentColor" d="M50.8 15.9L35.4.5l-9.7 9.7L15.5 0 0 15.5l10.2 10.2L.9 35v15.5h15.5l9.3-9.3 9.2 9.2 15.5-15.5-9.2-9.2 9.6-9.8zm-2.8 0l-3.9 3.9L31.5 7.2l3.9-3.9L48 15.9zM8.5 21.2l6.2-6.2-1.4-1.4-6.2 6.2-4.3-4.3L15.5 2.8l8.8 8.8-12.7 12.6-3.1-3zm7 27.2H2.9V35.8L30.1 8.6l5.1 5.1L8.7 40.3l1.4 1.4 26.5-26.5 6.1 6.1-27.2 27.1zm32-13.5L34.9 47.5l-3.6-3.6 6.2-6.2-1.5-1.3-6.2 6.2-2.8-2.8 12.6-12.6 7.9 7.7z"/></svg>
