<svg xmlns="http://www.w3.org/2000/svg" width="64" height="64" viewBox="0 0 64 64"><path fill="currentColor" d="M63.9 34.4c.1-.8.1-1.6.1-2.4 0-8.7-3.5-16.5-9.1-22.3l-.3-.3C48.9 3.6 40.8 0 32 0c-3.7 0-7.3.7-10.7 1.8-.1 0-.1 0-.2.1C8.8 6.4 0 18.2 0 32c0 9.2 3.9 17.5 10.2 23.4l.3.3C16.1 60.8 23.7 64 32 64c5.2 0 10.1-1.3 14.5-3.5.1-.1.3-.1.4-.2 9.5-5 16.1-14.6 17-25.8v-.1zM53.5 14.1c4 4.8 6.4 10.9 6.5 17.6-7.3-1.9-14-2.3-20.2-1.1-.8-1.9-1.6-3.8-2.4-5.6 6.4-2.4 11.9-5.9 16.1-10.9zm-2.8-2.9c-3.7 4.7-8.9 7.9-15.1 10.2-3-5.9-6.5-11.4-10.3-16.5 2.1-.6 4.4-.9 6.7-.9 7.2 0 13.7 2.7 18.7 7.2zm-29.5-5c3.9 5 7.4 10.5 10.5 16.4-8 2.3-17.4 3.2-27.1 3.9 1.8-9.3 8.2-16.8 16.6-20.3zM4 32v-1.6c10.5-.7 20.7-1.7 29.4-4.2.8 1.7 1.6 3.5 2.3 5.3-9.2 2.8-17.2 9.2-24.4 19.4C6.8 46 4 39.3 4 32zm10.3 21.7c6.9-9.9 14.3-15.9 22.9-18.5 2.6 7 4.7 14.4 6.2 22.3C40 59.1 36.1 60 32 60c-6.7 0-12.8-2.4-17.7-6.3zm32.9 1.8c-1.5-7.5-3.5-14.5-6-21.2 5.6-.9 11.8-.5 18.5 1.4-1.1 8.3-5.8 15.5-12.5 19.8z"/></svg>
