<svg xmlns="http://www.w3.org/2000/svg" width="64" height="64" viewBox="0 0 64 64"><path fill="currentColor" d="M64 22v-.3-.1-.1c0-.1 0-.1-.1-.2v-.1-.1s0-.1-.1-.1c0 0 0-.1-.1-.1l-.1-.1-.1-.1-.1-.1-.1-.1-.1-.1-.1-.1-7.1-4.8V2c0-1.1-.9-2-2-2H11C9.9 0 9 .9 9 2v12.6L.8 20.4l-.1.1-.1.1s-.1 0-.1.1l-.1.1-.1.1s0 .1-.1.1l-.1.1s0 .1-.1.1V57c0 2.1.9 4 2.4 5.2C3.7 63.4 5.3 64 7 64h50c3.9 0 7-3.1 7-7V22zm-4 35c0 .3-.1.6-.1.8L39.2 42 60 26.1V57zM4 57V26.1L24.8 42 4.1 57.8c0-.2-.1-.5-.1-.8zm24.1-12.5l2.7 2.1c.4.3.8.4 1.2.4s.9-.1 1.2-.4l2.7-2.1L56.1 60H7.9l20.2-15.5zm30.5-22.4l-2.6 2v-3.8l2.6 1.8zM52 4v23.1L32 42.5 13 27.9V4h39zM9 24.8L5.4 22 9 19.5v5.3z"/><path fill="currentColor" d="M21 17h22c1.1 0 2-.9 2-2s-.9-2-2-2H21c-1.1 0-2 .9-2 2s.9 2 2 2zM21 26h17.8c1.1 0 2-.9 2-2s-.9-2-2-2H21c-1.1 0-2 .9-2 2s.9 2 2 2z"/></svg>
