<svg xmlns="http://www.w3.org/2000/svg" width="64" height="64" viewBox="0 0 64 64"><path fill="currentColor" d="M52 0H12C5.4 0 0 5.4 0 12v40c0 6.6 5.4 12 12 12h40c6.6 0 12-5.4 12-12V12c0-6.6-5.4-12-12-12zm8 52c0 4.4-3.6 8-8 8H12c-4.4 0-8-3.6-8-8V12c0-4.4 3.6-8 8-8h40c4.4 0 8 3.6 8 8v40z"/><path fill="currentColor" d="M16 26c-1.1 0-2 .9-2 2v23c0 1.1.9 2 2 2s2-.9 2-2V28c0-1.1-.9-2-2-2z"/><circle cx="16" cy="17" r="2"/><path fill="currentColor" d="M39 26.7c-2.5 0-5 .7-7 2.2V28c0-1.1-.9-2-2-2s-2 .9-2 2v23c0 1.1.9 2 2 2s2-.9 2-2V36.8c0-4.8 4.4-6.1 7-6.1s7 1.3 7 6.1V51c0 1.1.9 2 2 2s2-.9 2-2V36.8c0-6.6-5.5-10.1-11-10.1z"/></svg>
