<svg xmlns="http://www.w3.org/2000/svg" width="64" height="64" viewBox="0 0 64 64"><path fill="currentColor" d="M63.5 11.6c-.6-.7-1.7-.9-2.5-.4-.2.1-.5.3-.8.4.4-.7.8-1.4 1.1-2.2.3-.8.1-1.7-.6-2.2-.6-.5-1.5-.6-2.3-.3-2 1.1-4 1.7-5.9 1.9C46.6 4.6 40.7 4.3 35 8c-.1 0-.1.1-.2.1-4.4 3.4-6.5 7.6-6.3 12.4-8.5-1.4-15.4-5.3-21-11.8-.4-.5-1.1-.8-1.7-.7-.7.1-1.3.5-1.6 1.1-2.6 5.2-2.6 9.9 0 13.9-.5-.1-.9 0-1.3.3-.6.4-1 1.1-.9 1.8.3 4.4 1.9 7.8 4.8 10.3-.1.1-.2.1-.3.2-.5.6-.7 1.3-.4 2 1.6 4.3 4.5 7.4 8.7 9C11.2 48.3 7 49.1 2 49c-.9 0-1.7.6-1.9 1.5-.2.9.1 1.8.9 2.3 6.4 3.8 13.3 5.7 20.1 5.7 6.6 0 13.2-1.8 19.1-5.4 11.2-6.9 17.4-18.8 16.9-32 2.4-1.9 4.6-4.2 6.6-6.8.5-.9.4-2-.2-2.7zm-9.7 6.7c-.6.4-.9 1.1-.8 1.8.9 12.2-4.7 23.2-14.9 29.5-8.7 5.3-18.9 6.2-28.5 2.8 4.4-.8 8.2-2.4 11.6-4.8.7-.5 1-1.3.8-2.1-.2-.8-.9-1.4-1.7-1.5-3.9-.5-6.8-2-8.7-4.6 1.1 0 2.1-.2 3.1-.5.8-.3 1.4-1 1.4-1.9s-.6-1.6-1.4-1.9c-4.4-1.3-6.9-3.5-8-7 1.6.3 2.9.2 4.2-.3.7-.3 1.1-.9 1.2-1.6s-.2-1.4-.8-1.9c-4.2-3-5.7-6.4-4.5-10.7 6.3 6.5 14.2 10.2 24 11.4.6.1 1.3-.2 1.7-.6.4-.5.6-1.1.5-1.8-.9-4.5.5-8.1 4.4-11.2C41.7 8.6 46 9 50.8 12.6c.4.3.8.4 1.3.4s1-.1 1.5-.1c-.2.2-.5.3-.7.5-.8.5-1.1 1.4-.8 2.3s1.1 1.4 2 1.4c.6 0 1.1-.1 1.7-.1-.7.4-1.3.9-2 1.3z"/></svg>
